<svg xmlns="http://www.w3.org/2000/svg" viewBox="0 0 16 16">
  <defs>
    <style>
      .cls-1 {
        fill: #6f75fe;
      }
    </style>
  </defs>
  <g id="common_checkbox_s" transform="translate(-100.7 -99.6)">
    <path id="路径_2" data-name="路径 2" class="cls-1" d="M114.224,99.6H103.176a2.478,2.478,0,0,0-2.476,2.476v11.049a2.478,2.478,0,0,0,2.476,2.476h11.049a2.478,2.478,0,0,0,2.476-2.476V102.076A2.478,2.478,0,0,0,114.224,99.6Zm1.031,13.523a1.032,1.032,0,0,1-1.031,1.031H103.176a1.032,1.032,0,0,1-1.031-1.031V102.076a1.032,1.032,0,0,1,1.031-1.031h11.049a1.032,1.032,0,0,1,1.031,1.031Z" transform="translate(0 0)"/>
    <path id="路径_3" data-name="路径 3" class="cls-1" d="M366.391,399.362a.877.877,0,0,1-.62-.256l-2.763-2.766a.877.877,0,1,1,1.241-1.241l2.143,2.143,3.236-3.236a.877.877,0,0,1,1.241,1.241l-3.854,3.858A.878.878,0,0,1,366.391,399.362Zm0,0" transform="translate(-257.806 -288.957)"/>
  </g>
</svg>
