<svg xmlns="http://www.w3.org/2000/svg" viewBox="0 0 16 16">
  <defs>
    <style>
      .cls-1 {
        fill: #999;
      }
    </style>
  </defs>
  <g id="common_checkbox_n" transform="translate(-100.7 -99.6)">
    <path id="路径_2" data-name="路径 2" class="cls-1" d="M114.224,99.6H103.176a2.478,2.478,0,0,0-2.476,2.476v11.049a2.478,2.478,0,0,0,2.476,2.476h11.049a2.478,2.478,0,0,0,2.476-2.476V102.076A2.478,2.478,0,0,0,114.224,99.6Zm1.031,13.523a1.032,1.032,0,0,1-1.031,1.031H103.176a1.032,1.032,0,0,1-1.031-1.031V102.076a1.032,1.032,0,0,1,1.031-1.031h11.049a1.032,1.032,0,0,1,1.031,1.031Z" transform="translate(0 0)"/>
  </g>
</svg>
